<?xml version="1.0" encoding="utf-8"?>
<!-- Generator: Adobe Illustrator 22.1.0, SVG Export Plug-In . SVG Version: 6.00 Build 0)  -->
<svg version="1.1" id="Calque_1" xmlns="http://www.w3.org/2000/svg" xmlns:xlink="http://www.w3.org/1999/xlink" x="0px" y="0px"
	 viewBox="0 0 28.4 28.4" style="enable-background:new 0 0 28.4 28.4;" xml:space="preserve">
<title>Plan de travail 1 copie 3</title>
<g>
	<defs>
		<rect id="SVGID_1_" x="-97.7" y="-39.7" width="132.4" height="38.5"/>
	</defs>
	<clipPath id="SVGID_2_">
		<use xlink:href="#SVGID_1_"  style="overflow:visible;"/>
	</clipPath>
</g>
<path d="M18.8,8.5V7.2c0-0.4-0.3-0.7-0.6-0.7c0,0,0,0,0,0c-0.2,0-0.3,0.1-0.5,0.2c-0.1,0.1-0.2,0.3-0.2,0.5v1.3H18.8z"/>
<path d="M10.9,8.5V7.2c0-0.2-0.1-0.3-0.2-0.5c-0.3-0.3-0.7-0.3-0.9,0C9.6,6.9,9.5,7.1,9.5,7.2v1.3H10.9z"/>
<path d="M20.1,21.8H8.2c-0.5,0-1-0.2-1.4-0.6c-0.4-0.4-0.6-0.9-0.6-1.4v-8.6c0-0.5,0.2-1,0.6-1.4c0.4-0.4,0.9-0.6,1.4-0.6h11.9
	c1.1,0,2,0.9,2,2v8.6C22.1,20.9,21.2,21.8,20.1,21.8L20.1,21.8z M20.8,12.5H7.6v7.3c0,0.4,0.3,0.7,0.7,0.7h11.9
	c0.4,0,0.7-0.3,0.7-0.7L20.8,12.5z"/>
</svg>
