<svg id="Calque_1" data-name="Calque 1" xmlns="http://www.w3.org/2000/svg" viewBox="0 0 28.35 28.35"><title>Plan de travail 1 copie 4</title><path d="M22.91,18.9a.64.64,0,0,1-.49-.22L15.48,11a.63.63,0,0,0-.47-.21.66.66,0,0,0-.48.19L11.2,14.29a2,2,0,0,1-2.79,0L5,10.85a.67.67,0,0,1,0-.93.65.65,0,0,1,.93,0l3.44,3.44a.67.67,0,0,0,.93,0L13.61,10a1.92,1.92,0,0,1,1.44-.57,2,2,0,0,1,1.41.65l6.94,7.71a.65.65,0,0,1,0,.92A.63.63,0,0,1,22.91,18.9Z"/><path d="M22.91,18.9H16.79a.66.66,0,0,1,0-1.31h5.46V12.13a.67.67,0,0,1,.66-.66.66.66,0,0,1,.65.66v6.12A.65.65,0,0,1,22.91,18.9Z"/></svg>