<?xml version="1.0" encoding="utf-8"?>
<!-- Generator: Adobe Illustrator 22.1.0, SVG Export Plug-In . SVG Version: 6.00 Build 0)  -->
<svg version="1.1" id="Calque_1" xmlns="http://www.w3.org/2000/svg" xmlns:xlink="http://www.w3.org/1999/xlink" x="0px" y="0px"
	 viewBox="0 0 28.3 28.3" style="enable-background:new 0 0 28.3 28.3;" xml:space="preserve">
<path d="M18.2,11.5c-0.2-0.1-0.7-0.1-1,0l-2.3,1.4l-1.5,0.8L11,15.1c-0.2,0.1-0.7,0.1-1,0l-1.6-1.2c-0.3-0.1-0.5-0.5-0.5-0.8V11
	c0-0.3,0.1-0.7,0.5-0.8l1.7-1c0.2-0.1,0.7-0.1,1,0l1.7,1c0.2,0.1,0.5,0.5,0.5,0.8v1.4l1.6-0.9v-1.4c0-0.3-0.1-0.7-0.5-0.8l-3.4-2
	c-0.2-0.1-0.7-0.1-1,0l-3.4,2c-0.3,0.2-0.5,0.5-0.5,0.8v3.8c0,0.3,0.1,0.7,0.5,0.8l3.4,2c0.2,0.1,0.7,0.1,1,0l2.3-1.3l1.6-0.9
	l2.3-1.3c0.2-0.1,0.7-0.1,1,0l1.7,1c0.2,0.1,0.5,0.5,0.5,0.8v2.1c0,0.3-0.1,0.7-0.5,0.8l-1.7,1c-0.2,0.1-0.7,0.1-1,0l-2-0.9
	c-0.2-0.1-0.5-0.5-0.5-0.8v-1.4l-1.5,0.9v1.4c0,0.3,0.1,0.7,0.5,0.8l3.4,2c0.2,0.1,0.7,0.1,1,0l3.4-2c0.2-0.1,0.5-0.5,0.5-0.8v-3.9
	c0-0.3-0.1-0.7-0.5-0.8L18.2,11.5z"/>
</svg>
