<?xml version="1.0" encoding="utf-8"?>
<!-- Generator: Adobe Illustrator 22.1.0, SVG Export Plug-In . SVG Version: 6.00 Build 0)  -->
<svg version="1.1" id="Calque_1" xmlns="http://www.w3.org/2000/svg" xmlns:xlink="http://www.w3.org/1999/xlink" x="0px" y="0px"
	 viewBox="0 0 20 20" style="enable-background:new 0 0 20 20;" xml:space="preserve">
<style type="text/css">
	.st0{fill:#FFFFFF;}
</style>
<title>Plan de travail 1</title>
<path class="st0" d="M15,10c-1.4,0-2.8,0.6-3.8,1.7l-3.2-2c0.2-0.5,0.3-0.9,0.3-1.4c0-0.3,0-0.7-0.1-1l4.2-1.9
	c1.2,1.4,3.3,1.6,4.7,0.4s1.6-3.3,0.4-4.7c-1.2-1.4-3.3-1.6-4.7-0.4c-0.8,0.6-1.2,1.6-1.2,2.6c0,0.2,0,0.4,0.1,0.6l-4.2,2
	C6.1,4,3.5,3.6,1.7,5s-2.2,4-0.9,5.8s4,2.2,5.8,0.9c0.2-0.2,0.4-0.3,0.6-0.5l3.2,2C10.1,13.8,10,14.4,10,15c0,2.8,2.2,5,5,5
	s5-2.2,5-5S17.8,10,15,10z"/>
</svg>
