<svg width="20" height="20" viewBox="0 0 20 20" fill="none" xmlns="http://www.w3.org/2000/svg">
<g clip-path="url(#clip0_304_13607)">
<path d="M5.55363 7.53055L6.88427 9.05124L8.54481 7.15356L7.43474 5.88502C6.2476 4.52761 4.53313 3.75 2.73135 3.75H0V6.24998H2.73135C3.81228 6.25002 4.84131 6.71636 5.55363 7.53055Z" fill="black"/>
<path d="M16.2501 13.75H16.0187C14.9378 13.75 13.9087 13.2837 13.1965 12.4695L11.0355 9.99999L13.1965 7.53049C13.9087 6.71626 14.9378 6.24997 16.0187 6.24997H16.2501V8.74996L20 4.99986L16.2501 1.25V3.74999H16.0187C14.217 3.74999 12.5025 4.52756 11.3153 5.885L5.55359 12.4695C4.84131 13.2837 3.81224 13.75 2.73131 13.75H0V16.25H2.73135C4.5331 16.25 6.2476 15.4724 7.43475 14.115L9.37506 11.8976L11.3154 14.115C12.5025 15.4724 14.217 16.25 16.0188 16.25H16.2501V18.75L20 15L16.2501 11.25V13.75Z" fill="black"/>
</g>
<defs>
<clipPath id="clip0_304_13607">
<rect width="20" height="20" fill="white"/>
</clipPath>
</defs>
</svg>
