<?xml version="1.0" encoding="utf-8"?>
<!-- Generator: Adobe Illustrator 22.1.0, SVG Export Plug-In . SVG Version: 6.00 Build 0)  -->
<svg version="1.1" id="Calque_1" xmlns="http://www.w3.org/2000/svg" xmlns:xlink="http://www.w3.org/1999/xlink" x="0px" y="0px"
	 viewBox="0 0 28.3 28.3" style="enable-background:new 0 0 28.3 28.3;" xml:space="preserve">
<g>
	<path d="M8.6,17.7c0.1-0.1,0.3-0.1,0.4-0.1h13.3c0.3,0,0.4,0.3,0.1,0.5l-2.6,2.6c-0.1,0-0.3,0-0.4,0H6.1c-0.3,0-0.4-0.3-0.1-0.4
		L8.6,17.7z"/>
	<path d="M8.6,7.8C8.7,7.7,8.8,7.7,9,7.7h13.3c0.3,0,0.4,0.3,0.1,0.5l-2.6,2.6c-0.1,0.1-0.3,0.1-0.4,0.1H6.1c-0.3,0-0.4-0.3-0.1-0.5
		L8.6,7.8z"/>
	<path d="M19.8,12.7c-0.1-0.1-0.3-0.1-0.4-0.1H6.1C5.8,12.5,5.7,12.9,6,13l2.6,2.6c0.1,0.1,0.3,0.1,0.4,0.1h13.3
		c0.3,0,0.4-0.3,0.1-0.5L19.8,12.7z"/>
</g>
</svg>
