<svg id="Calque_1" data-name="Calque 1" xmlns="http://www.w3.org/2000/svg" viewBox="0 0 28.35 28.35"><title>Plan de travail 1 copie 5</title><path d="M15,18.9a2,2,0,0,1-1.39-.58L10.27,15a.67.67,0,0,0-.93,0L5.9,18.43A.66.66,0,0,1,5,17.5l3.45-3.44a2,2,0,0,1,2.78,0l3.33,3.34a.67.67,0,0,0,.48.19.65.65,0,0,0,.47-.22l6.94-7.71a.66.66,0,0,1,1,.88l-6.94,7.71a2,2,0,0,1-1.41.65Z"/><path d="M22.91,16.87a.66.66,0,0,1-.66-.65V10.76H16.79a.66.66,0,0,1-.65-.66.65.65,0,0,1,.65-.65h6.12a.65.65,0,0,1,.65.65v6.12A.65.65,0,0,1,22.91,16.87Z"/></svg>